<svg xmlns="http://www.w3.org/2000/svg" viewBox="0.0 0.0 294.88 294.88" width="300" height="300">
  <defs>
    <style>
      .cls-1 {
        fill: #d5001c;
      }

      .cls-2 {
        fill: #fff;
      }

      .cls-3 {
        fill: #202392;
      }

      .cls-4 {
        fill: #fdca00;
      }
    </style>
  </defs>
  <g>
    <g>
      <path class="cls-2" d="M0,147.44C0,66,66.01,0,147.44,0h0c81.43,0,147.44,66,147.44,147.44h0c0,81.43-66.01,147.44-147.44,147.44h0C66.01,294.88,0,228.87,0,147.44h0Z"/>
      <path d="M147.44,4.76c-78.8,0-142.68,63.87-142.68,142.68,0,78.8,63.88,142.68,142.68,142.68,78.8,0,142.68-63.88,142.68-142.68,0-78.81-63.88-142.68-142.68-142.68Z"/>
      <path class="cls-2" d="M245.58,245.58c-25.12,25.12-59.81,40.65-98.14,40.65-38.33,0-73.02-15.53-98.14-40.65-25.12-25.12-40.65-59.81-40.65-98.14,0-38.33,15.53-73.02,40.65-98.14,25.12-25.12,59.81-40.65,98.14-40.65,38.33,0,73.02,15.53,98.14,40.65,25.12,25.12,40.65,59.8,40.65,98.14,0,38.33-15.53,73.02-40.65,98.14Z"/>
      <circle cx="147.44" cy="147.44" r="136.02"/>
      <path class="cls-2" d="M200.12,23.63c6.39,2.72,12.52,5.93,18.36,9.57l-24.48,33.08c-2.31-1.33-4.68-2.55-7.11-3.68l13.23-38.97Z"/>
      <path class="cls-2" d="M129.56,239.27c2.38,1.45,4.61,2.76,6.63,3.9-22.12-2.57-41.95-12.63-56.9-27.57-17.44-17.45-28.23-41.54-28.23-68.16,0-27.85,11.82-52.92,30.7-70.52l1.7,2.29c-18.19,17.07-29.55,41.32-29.55,68.23,0,45.55,32.55,83.48,75.66,91.83Z"/>
      <path class="cls-2" d="M165.33,239.27c43.1-8.35,75.65-46.28,75.66-91.83,0-26.91-11.37-51.16-29.56-68.22l1.7-2.3c18.88,17.6,30.69,42.68,30.69,70.53,0,26.62-10.79,50.71-28.23,68.16-14.95,14.95-34.78,25-56.9,27.57,2.02-1.14,4.25-2.45,6.63-3.9Z"/>
      <path class="cls-2" d="M158.3,13.36c7.24.58,14.32,1.73,21.19,3.41l-13.25,39.01c-2.61-.53-5.26-.95-7.94-1.26V13.36Z"/>
      <path class="cls-2" d="M210.83,84.05c16.23,16.23,26.26,38.63,26.26,63.39,0,24.76-10.03,47.16-26.26,63.39-9.78,9.78-21.8,17.3-35.22,21.74,1.13-.79,2.27-1.6,3.41-2.43,7.61-5.57,15.27-12.12,21.12-19.36,5.83-7.23,9.95-15.24,9.97-23.77v-101.73h-125.33v101.73c.02,8.53,4.14,16.54,9.97,23.77,6.73,8.32,15.84,15.75,24.54,21.79-13.43-4.44-25.46-11.96-35.24-21.74-16.23-16.23-26.26-38.63-26.26-63.39,0-24.76,10.03-47.16,26.26-63.39,16.23-16.23,38.63-26.26,63.39-26.26,24.76,0,47.16,10.03,63.39,26.26Z"/>
      <path class="cls-2" d="M136.59,13.36v41.16c-2.68.31-5.33.73-7.94,1.26l-13.25-39.01c6.87-1.68,13.95-2.84,21.19-3.41Z"/>
      <path class="cls-2" d="M94.77,23.63l13.23,38.97c-2.43,1.13-4.8,2.36-7.11,3.68l-24.48-33.08c5.84-3.64,11.97-6.85,18.36-9.57Z"/>
      <path class="cls-2" d="M242.56,242.56c-24.34,24.34-57.97,39.4-95.12,39.4-37.15,0-70.77-15.06-95.12-39.4-24.34-24.35-39.4-57.97-39.4-95.12s15.05-70.77,39.4-95.12c2.14-2.14,4.36-4.21,6.64-6.2l21.89,29.58c-19.25,17.88-31.3,43.4-31.3,71.74,0,51.39,39.6,93.53,89.96,97.57,4.12,2.24,6.73,3.48,6.76,3.5l1.17.56,1.17-.56s2.64-1.26,6.76-3.5c50.35-4.04,89.96-46.18,89.96-97.57,0-28.34-12.05-53.87-31.3-71.74l21.88-29.57c2.28,1.99,4.5,4.06,6.64,6.2,24.34,24.34,39.4,57.97,39.4,95.12,0,37.15-15.06,70.77-39.4,95.12Z"/>
      <path d="M54.82,66.33c-1.07,1.39-5.08-2.44-9.17,2.88-1.41,1.83-1.58,4.43.67,6.16,4.9,3.77,11.36-8.25,18.9-2.46,3.64,2.8,3.43,8.14.82,11.54-.95,1.24-2,1.94-2.87,2.4-.9.44-1.59.66-1.86,1.02-.27.35-.08.78.14,1.09l-1.07,1.39-5.23-4.02.72-.94c1.61-2.1,4.9,2.49,8.15-1.74,1.23-1.6,1.3-3.84-.41-5.16-4.49-3.45-10.71,8.74-18.43,2.82-4.26-3.27-4.17-9.5-1.08-13.53,2.04-2.66,4.28-3.19,4.85-3.93.3-.38.16-.76-.17-1.07l1.41-1.83,5.5,4.22-.89,1.15"/>
      <path d="M60.29,91.84c-.88.52-1.63,1.44-2.08,2.34l-7.18,14.45c-.44.9-.73,2.05-.61,3.07l-6.34-3.15.46-.93c1.13-2.27,3.54,2.59,6.36-3.08l.62-1.23-18.26-9.08c-2.64-1.31-1.8,1.77-4.03.66l-.5-.25,4.86-9.78.5.25c2.24,1.11-.73,2.3,1.91,3.61l18.25,9.08.62-1.23c2.82-5.67-2.51-4.66-1.38-6.93l.46-.93,6.34,3.15"/>
      <path d="M25.52,111.68c-1.67-.53-2.59-2.32-2.05-3.99.53-1.67,2.32-2.58,3.99-2.05,1.67.53,2.58,2.32,2.05,3.99-.53,1.67-2.32,2.58-3.98,2.05"/>
      <path d="M43.74,147.95l-.23,9.13-.56-.02c-2.5-.06-.32-2.17-3.26-2.24l-18.45-.47c-2.94-.07-.87,2.14-3.37,2.08l-.56-.02.26-10.39.56.02c2.5.06.32,2.1,3.26,2.17l17.48.44v-.08l-21.17-7.73.06-2.35,21.27-6.58v-.08l-17.21-.44c-2.94-.08-.88,2.33-3.38,2.26l-.55-.02.18-7.08.55.02c2.5.06.31,2.43,3.26,2.51l18.44.47c2.95.07.87-2.06,3.37-2l.56.02-.24,9.17-16.76,5.28,16.47,5.93"/>
      <path d="M45.77,169.45l-.55.1c-2.46.43-.73-2.03-3.63-1.53l-18.17,3.17c-2.9.51-.44,2.24-2.9,2.66l-.55.1-1.79-10.24.55-.1c2.46-.43.73,2.02,3.63,1.53l18.17-3.17c2.9-.51.44-2.23,2.9-2.66l.55-.1,1.79,10.24"/>
      <path d="M37.55,183.32l.6,1.65c.76,2.14,2.43,4.67,6.6,3.17,3.33-1.2,3.55-4.01,3.15-5.13l-1.09-3.02-9.26,3.32M27.77,186.84c-2.7.97-.14,2.26-2.31,3.05l-.64.22-3.49-9.72.64-.22c2.17-.78,1.02,1.85,3.72.88l17.36-6.24c2.7-.97.14-2.26,2.31-3.04l.63-.23,4.97,13.85c.91,2.52.83,7.15-3.63,8.75-4.91,1.76-7.65-1.89-8.81-5.12l-.34-.95-.07.03c.81,2.8.16,3.86-1.55,5.94l-5.02,6.2c-1.34,1.67.51,2.31-1.31,2.96l-.63.23-2.75-7.64,7.07-8c.76-.87,2.18-2.32,1.77-3.45l-.11-.32-7.82,2.81Z"/>
      <path d="M48.45,207.1l.95,1.47c1.23,1.91,3.42,4,7.15,1.6,2.98-1.92,2.55-4.71,1.91-5.71l-1.74-2.69-8.27,5.33M39.71,212.74c-2.41,1.55.38,2.24-1.56,3.49l-.57.36-5.59-8.67.57-.37c1.94-1.25,1.41,1.58,3.83.02l15.51-10c2.41-1.55-.38-2.24,1.57-3.49l.57-.36,7.98,12.38c1.45,2.26,2.42,6.78-1.57,9.34-4.38,2.82-7.88-.11-9.73-3l-.55-.85-.06.04c1.42,2.54,1.03,3.73-.17,6.14l-3.49,7.17c-.93,1.93,1.02,2.13-.61,3.18l-.57.36-4.4-6.83,5.08-9.39c.54-1.02,1.6-2.76.95-3.76l-.18-.29-6.99,4.51Z"/>
      <path d="M64.66,227.49l1.76,1.77c2.29,2.29,2.72-.97,4.53.85l.48.48-5.28,5.27-.71-.71c-1.53-1.53,1.42-2.47-.5-4.4l-1.76-1.77-7.42,7.4,4.4,4.4c3.77,3.77,5.27-1.52,7.3.5l.63.64-4.88,4.88-14.76-14.77.48-.48c1.64-1.63,1.71,1.24,3.75-.79l13.05-13.04c2.03-2.02-.84-2.1.79-3.74l.48-.48,11.59,11.6c.71.72,1.71,1.35,2.72,1.56l-4.96,4.95-.79-.79c-1.55-1.56,2.24-3.56-.79-6.59l-3.42-3.43-6.7,6.69"/>
      <path d="M89.61,252.89l6.59-9.63c1.67-2.43-1.29-1.88.12-3.93l.32-.47,5.38,3.69-.31.46c-1.41,2.06-1.94-.87-3.6,1.56l-12.61,18.43-2.22-1.52.3-25.99-10.02,14.64c-1.66,2.43,1.51,2.02.1,4.08l-.32.46-5.81-3.98.32-.46c1.41-2.06,2.15,1.02,3.81-1.41l10.42-15.23c1.66-2.43-1.47-2-.06-4.07l.32-.46,7.35,5.03-.07,18.79"/>
      <path d="M116.3,258.25l2.77.76c3.13.85,1.95-2.17,4.43-1.49l.58.16-1.97,7.18-1.26-.34c-1.8-.5.22-2.8-2.4-3.52l-2.81-.77-2.31,8.45c-.78,2.84,1.97,1.39,1.31,3.8l-.15.54-10.14-2.79.15-.54c.66-2.4,2.11.2,2.89-2.64l4.88-17.79c.39-1.43-.06-1.75-.52-2.04-.46-.28-.94-.53-.64-1.6l.18-.65,16.21,4.45c.97.27,2.15.32,3.13,0l-1.86,6.8-1.08-.3c-2.05-.56.49-4.15-3.65-5.29l-5.25-1.44-2.49,9.06"/>
      <path d="M148.52,264.33c.2-4.24-.29-12.03-6.14-12.3-5.81-.27-7.03,7.43-7.22,11.64-.2,4.24.3,12.03,6.14,12.3,5.81.27,7.02-7.43,7.22-11.64M128.45,263.38c.38-8,6.01-13.52,14.01-13.15,8.04.38,13.13,6.4,12.76,14.36-.38,8.01-6.01,13.53-14.01,13.15-8.04-.38-13.13-6.4-12.76-14.37Z"/>
      <path d="M178.5,260.17c-.89-4.15-3.34-11.55-9.07-10.33-5.69,1.21-4.9,8.97-4.02,13.09.89,4.15,3.34,11.55,9.07,10.33,5.68-1.21,4.9-8.97,4.02-13.09M158.86,264.37c-1.68-7.84,2.36-14.6,10.2-16.28,7.87-1.68,14.33,2.85,16,10.65,1.67,7.84-2.37,14.6-10.2,16.28-7.87,1.68-14.33-2.84-15.99-10.64Z"/>
      <path d="M181.64,245.02c1.01.14,2.17-.12,3.08-.56l14.56-6.96c.91-.43,1.84-1.17,2.37-2.04l3.05,6.39-.94.45c-2.29,1.09-1.19-4.22-6.91-1.49l-1.24.59,8.78,18.4c1.27,2.66,2.51-.29,3.58,1.97l.24.51-9.86,4.7-.24-.5c-1.08-2.25,1.99-1.37.72-4.02l-8.79-18.4-1.24.59c-5.72,2.73-.89,5.22-3.18,6.31l-.94.45-3.05-6.39"/>
      <path d="M217.55,238.49l.91-.71c2.09-1.62,3.67-4.02,1.3-7.09-2.37-3.06-4.96-1.95-6.02-1.13l-1.95,1.51,5.75,7.42M225.29,248.47l1.24-.96c2.44-1.89,4.81-4.2,1.84-8.03-2.86-3.68-6.27-1.88-7.98-.56l-1.56,1.21,6.46,8.33ZM220.06,255.17l-.41-.53c-1.41-1.83,1.44-1.55-.31-3.81l-11.3-14.58c-1.73-2.24-2.2.57-3.62-1.26l-.41-.53,10.19-7.89c3.18-2.46,7.45-4.07,10.37-.3,2.33,3.01.88,6.67-1.63,9.03l.04.06c2.91-2.16,7.52-3.75,10.55.17,3.91,5.04-.43,9.54-3.5,11.91l-9.99,7.74Z"/>
      <path d="M237.68,226.55l4.63-5.69-9.58-2.99,4.95,8.68M238.85,228.42l1.25,2.41c.27.55.66,1.26,1.18,1.68,1.56,1.27,1.57-1.93,3.51-.36l.44.35-4.92,6.04-.43-.35c-2.2-1.79,1.29-.82-1.43-5.63l-8.94-15.83-.88-.27c-.19-.06-1.19-.3-1.4-.47-.34-.28-.11-.86-.04-1.19l.84-3.4c.03-.21.14-.7.3-.9.28-.35,1.01,0,1.61.2l22.35,7.08c3.04.98,2.26-1.82,4.31-.15l.43.35-7.03,8.65-.43-.36c-1.97-1.6.72-2.06-.53-3.07-.35-.28-.7-.38-1.13-.49l-3.58-1.04-5.48,6.74Z"/>
      <path d="M267.89,196.96l-8.9,17.52-.6-.3c-2.06-1.05.66-2.05-1.9-3.34l-16.44-8.35c-2.56-1.3-1.76,1.49-3.83.44l-.6-.3,4.84-9.54.6.3c2.06,1.05-.8,2.31,1.76,3.61l18.05,9.17,1.25-2.46c3.83-7.54-2.21-6.27-.73-9.19l.34-.66,6.15,3.12"/>
      <path d="M275.44,173.82l-5.9,18.73-.64-.2c-2.21-.69.32-2.13-2.42-2.99l-17.6-5.54c-2.74-.86-1.49,1.75-3.69,1.06l-.64-.2,3.21-10.2.64.21c2.2.69-.41,2.41,2.33,3.27l19.3,6.09.83-2.64c2.54-8.07-3.2-5.81-2.22-8.95l.22-.71,6.58,2.08"/>
      <path d="M258.65,135.68l.06,1.01c.17,2.72-6.17,2.28-5.82,7.94.35,5.65,6.83,6.49,11.33,6.21,5.51-.34,11.78-2.82,11.37-9.33-.18-2.94-1.55-4.5-3.99-5.91l-.24-.14,1.05-1.86c3.59,1.9,5.61,4.99,5.86,9.09.52,8.26-5.02,14.13-13.24,14.64-7.18.44-13.68-3.74-14.15-11.33-.14-2.16.23-3.6.64-4.67.38-1.07.82-1.77.79-2.4-.04-.52-.31-.69-.76-.81l-.12-1.97,7.22-.45"/>
      <path d="M271.96,109.27l4.23,19.18-.66.14c-2.25.5-.79-2-3.59-1.38l-18.02,3.98c-2.8.62-.41,2.27-2.67,2.77l-.65.14-2.31-10.44.66-.14c2.25-.5.85,2.29,3.65,1.67l19.76-4.36-.6-2.69c-1.83-8.26-5.68-3.44-6.39-6.64l-.16-.73,6.74-1.49"/>
      <path d="M243.31,108.26l.51-.23c2.27-1.03,1.2,1.75,3.88.53l12.69-5.76c3.49-1.59,5.76-3.73,3.94-7.73-2.09-4.61-6.11-3.81-7.3-3.27l-14.05,6.38c-2.68,1.22.12,2.24-2.16,3.27l-.51.23-2.68-5.91.51-.23c2.28-1.03,1.2,1.75,3.89.53l14.05-6.38c4.48-2.03,8.59.64,10.89,5.69,2.31,5.09,1.97,10.28-3.26,12.66l-13.47,6.12c-2.68,1.22.12,2.24-2.15,3.27l-.51.23-4.27-9.4"/>
      <path d="M240.93,80.27l-.7-.92c-1.61-2.1-3.99-3.71-7.08-1.36-3.09,2.35-2,4.94-1.19,6.01l1.49,1.96,7.48-5.68M250.99,72.62l-.95-1.25c-1.87-2.46-4.15-4.85-8.01-1.92-3.71,2.82-1.94,6.25-.64,7.98l1.2,1.57,8.4-6.38ZM257.63,77.92l-.53.4c-1.84,1.4-1.53-1.45-3.82.28l-14.68,11.16c-2.25,1.71.55,2.2-1.29,3.6l-.53.41-7.8-10.27c-2.44-3.2-4.01-7.48-.21-10.37,3.03-2.3,6.69-.82,9.02,1.71l.06-.05c-2.13-2.92-3.68-7.55.26-10.55,5.08-3.85,9.53.53,11.88,3.62l7.65,10.06Z"/>
      <polygon class="cls-4" points="147.44 90.74 90.22 90.74 90.22 132.26 204.66 132.26 204.66 90.74 147.44 90.74"/>
      <rect class="cls-3" x="90.22" y="150.18" width="13.41" height="13.41"/>
      <rect class="cls-2" x="104.66" y="150.18" width="13.41" height="13.41"/>
      <polygon class="cls-3" points="119.09 163.59 119.09 163.59 119.09 150.18 132.5 150.18 132.5 163.59 119.09 163.59"/>
      <polygon class="cls-2" points="133.52 163.59 133.52 163.59 133.52 150.18 133.52 150.18 146.93 150.18 146.93 163.59 133.52 163.59"/>
      <polygon class="cls-3" points="147.95 150.18 147.95 150.18 147.95 150.18 161.37 150.18 161.37 163.59 147.95 163.59 147.95 150.18"/>
      <rect class="cls-2" x="162.38" y="150.18" width="13.41" height="13.41"/>
      <rect class="cls-3" x="176.82" y="150.18" width="13.41" height="13.41"/>
      <rect class="cls-2" x="176.82" y="135.75" width="13.41" height="13.41"/>
      <rect class="cls-3" x="162.38" y="135.75" width="13.41" height="13.41"/>
      <rect class="cls-2" x="147.95" y="135.75" width="13.41" height="13.41"/>
      <polygon class="cls-3" points="146.93 149.16 140.23 149.16 133.52 149.16 133.52 135.75 146.93 135.75 146.93 149.16"/>
      <polygon class="cls-2" points="132.5 149.16 119.09 149.16 119.09 135.75 132.5 135.75 132.5 149.16"/>
      <polygon class="cls-3" points="118.07 149.16 111.36 149.16 104.66 149.16 104.65 149.16 104.65 135.75 118.07 135.75 118.07 149.16"/>
      <polygon class="cls-2" points="103.64 149.16 103.64 149.16 90.22 149.16 90.22 135.75 103.64 135.75 103.64 149.16"/>
      <rect class="cls-2" x="90.22" y="164.61" width="13.41" height="13.41"/>
      <rect class="cls-3" x="104.65" y="164.61" width="13.41" height="13.41"/>
      <rect class="cls-2" x="119.09" y="164.61" width="13.41" height="13.41"/>
      <rect class="cls-3" x="133.52" y="164.61" width="13.41" height="13.41"/>
      <polygon class="cls-2" points="147.95 164.61 161.37 164.61 161.37 164.61 161.37 178.03 147.95 178.03 147.95 164.61"/>
      <rect class="cls-3" x="162.38" y="164.61" width="13.41" height="13.41"/>
      <polygon class="cls-2" points="176.82 164.61 176.82 164.61 190.23 164.61 190.23 164.61 190.23 178.03 176.82 178.03 176.82 164.61"/>
      <rect class="cls-2" x="191.25" y="150.18" width="13.41" height="13.41"/>
      <rect class="cls-3" x="191.25" y="164.61" width="13.41" height="13.41"/>
      <rect class="cls-3" x="191.25" y="135.75" width="13.41" height="13.41"/>
      <path class="cls-4" d="M98.98,207.37c8.08,10.03,20.54,19.19,30.94,25.73,5.2,3.28,9.89,5.91,13.27,7.72,1.69.91,3.05,1.61,3.99,2.08.09.04.18.09.26.13,4.07-2.03,18.03-9.31,31.12-19.34,6.87-5.26,13.5-11.27,18.32-17.57,4.84-6.31,7.79-12.83,7.77-19.09v-5.5h-114.44v5.5c-.02,6.68,3.35,13.66,8.76,20.35Z"/>
      <path d="M115.73,100.01c.62.93,1.32,1.93,1.24,3.25.31,1.01-.69,1.93.08,2.55,1.78-1.4,4.56-1.86,6.81-1.01,2.55,1.31,4.41,3.48,6.26,5.57.16.46.16.77,0,1.24-1.15.23-1.15,1.78-2.32,2.01-.85.93-2.01,1.24-3.02,2.01-.93,1.24-2.93.62-3.71,2.09.85,1.62,1.24,3.55,1.63,5.34-.85,1.31.77,2.24.31,3.56-.25.67-.31.12-.69.67l-.77.02c-2.32.23-4.48-.24-6.42-.62-1.39-.62-2.63-1.47-3.95-2.17-1.47,1.01-3.09,2.01-4.87,2.25-1.63.85-3.64,1-5.5,1.08-1.08-2.93-2.16-7.34-.77-10.52-1.63-1.32-4.33-2.71-5.26-4.95-.23-1.16-2.09-2.01-1.16-3.33,1.24-1.47,2.63-2.71,4.18-3.71,1.47.23,1.93-1.01,3.33-.7.46.54.93-.24,1.47-.08.69,0,1.55,1.16,2.01.08-1.16-3.95,2.32-7.12,5.1-9.51,2.7.78,3.94,3.02,6.03,4.87"/>
      <path class="cls-1" d="M110.78,98.54c1.78,1.32,3.71,2.94,3.4,5.42-.31.61-.39,1.7-1.24,1.78-1.31.16-.85-1.47-1.47-2.09.16-.23.08-.62.08-.93-.23-.38-.69-.46-1-.23-.46.38,0,.85,0,1.31-.24.7-.54,1.62-1.24,1.86-.93.46-1.24-.39-1.78-.93-.47-.93-1.09-2.4-.24-3.4.93-1.08,1.86-2.24,2.79-3.02l.7.23"/>
      <path class="cls-1" d="M104.2,108.67c.24,1.16-1.16.85-1.62,1.39-.62-.08-1.24-.08-1.63.31.08,1.55,2.24.46,2.79,1.7.38.85-.47,1.94-1.47,2.24-1.78,1.09-3.17-.61-4.48-1.31-.46-1.01-1.47-1.7-1.24-2.94.85-1.63,2.63-3.02,4.41-3.33,1.31,0,2.79.62,3.25,1.93"/>
      <path class="cls-1" d="M126.79,110.38c.16,2.24-2.4,2.55-3.71,3.48-1.08.46-2.71.77-3.79.16-.69-.7-2.08-1.01-1.78-2.17.39-.54,1.63-.46,1.24-1.31-.39-.93-2.48-.46-1.16-1.78.7-1.01,2.01-1.24,3.02-2.01,3.02-.7,4.4,2.01,6.19,3.63"/>
      <path class="cls-1" d="M114.18,109.76c.85,1.55.85,3.48,0,5.02-.85,1.16-2.24,1.55-3.63,1.47-1.39.08-2.17-.77-3.25-1.47-.7-1.39-1.08-3.4-.39-4.95,1.16-1.7,2.94-2.32,5.03-1.85.92.15,1.7,1,2.24,1.78"/>
      <path d="M120.29,110.38c-.08.24-.31.24-.54.24-.16-.39.54-.78.54-.24"/>
      <path class="cls-1" d="M105.98,116.87c.46,1.24-.16,1.78-.23,2.94,1.63.77,2.01-2.55,3.71-1.08.62,1,0,2.16-.23,3.17-1.47,2.17-3.87,3.17-6.5,3.17-1.09-.7-.08-2.4-.77-3.33.08-1.39,0-3.09,1.08-4.17.78-.62,2.24-1.94,2.94-.7"/>
      <path class="cls-1" d="M119.36,119.89c.39,1.55.47,2.86.93,4.25-.62,1.79-2.24.78-3.63.93-2.01-.47-3.79-2.01-4.1-4.03,0-1.08-.61-2.01.46-2.71.7.16,1.78,1.01,2.32,0,.16-.54-.16-1.01.3-1.32,1.55.39,3.1,1.24,3.71,2.86"/>
      <path d="M116.27,119.66c-.16.15-.47.54-.77.23v-.54c.3,0,.69-.08.77.31"/>
      <path d="M179.15,100.01c-.62.93-1.32,1.93-1.24,3.25-.31,1.01.7,1.93-.08,2.55-1.78-1.4-4.56-1.86-6.81-1.01-2.55,1.31-4.41,3.48-6.26,5.57-.16.46-.16.77,0,1.24,1.15.23,1.15,1.78,2.32,2.01.85.93,2.01,1.24,3.02,2.01.93,1.24,2.93.62,3.71,2.09-.85,1.62-1.24,3.55-1.63,5.34.85,1.31-.77,2.24-.31,3.56.25.67.31.12.69.67l.78.02c2.32.23,4.48-.24,6.42-.62,1.39-.62,2.63-1.47,3.95-2.17,1.47,1.01,3.09,2.01,4.87,2.25,1.63.85,3.64,1,5.5,1.08,1.08-2.93,2.16-7.34.77-10.52,1.63-1.32,4.33-2.71,5.26-4.95.23-1.16,2.09-2.01,1.16-3.33-1.24-1.47-2.63-2.71-4.18-3.71-1.47.23-1.93-1.01-3.33-.7-.46.54-.93-.24-1.47-.08-.69,0-1.55,1.16-2.01.08,1.16-3.95-2.32-7.12-5.1-9.51-2.71.78-3.95,3.02-6.03,4.87"/>
      <path class="cls-1" d="M184.1,98.54c-1.78,1.32-3.71,2.94-3.4,5.42.31.61.39,1.7,1.24,1.78,1.31.16.85-1.47,1.47-2.09-.16-.23-.08-.62-.08-.93.23-.38.69-.46,1-.23.46.38,0,.85,0,1.31.24.7.54,1.62,1.24,1.86.93.46,1.24-.39,1.78-.93.47-.93,1.09-2.4.24-3.4-.93-1.08-1.86-2.24-2.79-3.02l-.7.23"/>
      <path class="cls-1" d="M190.68,108.67c-.24,1.16,1.16.85,1.62,1.39.62-.08,1.24-.08,1.63.31-.08,1.55-2.24.46-2.79,1.7-.38.85.47,1.94,1.47,2.24,1.78,1.09,3.17-.61,4.48-1.31.46-1.01,1.47-1.7,1.24-2.94-.85-1.63-2.63-3.02-4.41-3.33-1.32,0-2.79.62-3.25,1.93"/>
      <path class="cls-1" d="M168.09,110.38c-.16,2.24,2.4,2.55,3.71,3.48,1.08.46,2.71.77,3.79.16.69-.7,2.08-1.01,1.78-2.17-.39-.54-1.63-.46-1.24-1.31.39-.93,2.48-.46,1.16-1.78-.7-1.01-2.01-1.24-3.02-2.01-3.02-.7-4.41,2.01-6.19,3.63"/>
      <path class="cls-1" d="M180.7,109.76c-.85,1.55-.85,3.48,0,5.02.85,1.16,2.24,1.55,3.63,1.47,1.39.08,2.17-.77,3.25-1.47.7-1.39,1.08-3.4.39-4.95-1.16-1.7-2.94-2.32-5.03-1.85-.92.15-1.7,1-2.24,1.78"/>
      <path d="M174.59,110.38c.08.24.31.24.54.24.16-.39-.54-.78-.54-.24"/>
      <path class="cls-1" d="M188.9,116.87c-.46,1.24.16,1.78.23,2.94-1.63.77-2.01-2.55-3.71-1.08-.62,1,0,2.16.23,3.17,1.47,2.17,3.87,3.17,6.5,3.17,1.09-.7.08-2.4.77-3.33-.08-1.39,0-3.09-1.08-4.17-.77-.62-2.24-1.94-2.94-.7"/>
      <path class="cls-1" d="M175.52,119.89c-.39,1.55-.47,2.86-.93,4.25.62,1.79,2.24.78,3.63.93,2.01-.47,3.79-2.01,4.1-4.03,0-1.08.61-2.01-.46-2.71-.7.16-1.78,1.01-2.32,0-.16-.54.16-1.01-.3-1.32-1.55.39-3.1,1.24-3.71,2.86"/>
      <path d="M178.61,119.66c.16.15.47.54.77.23v-.54c-.3,0-.69-.08-.77.31"/>
      <path d="M121.42,66.29l4.03-1.39h2.47v15.29c0,1.39,1.84.3,1.84,1.61v.6h-7.77v-.6c0-1.31,1.99-.22,1.99-1.61v-12.88h-2.56v-1.02"/>
      <path d="M137.5,75.01c-.92.5-1.37,2.22-1.37,3.21,0,1.9,1.09,3.44,3.12,3.44,1.64,0,2.61-1.12,2.61-2.69,0-1.72-1.49-2.54-2.84-3.23l-1.52-.72M142.15,68.78c0-1.69-1.02-3.14-2.79-3.14-1.27,0-2.47,1.07-2.47,2.39,0,1.99,1.82,3.14,3.49,3.81,1.17-.7,1.77-1.72,1.77-3.07ZM141.68,72.62c2.07,1.02,3.84,2.12,3.84,4.73,0,1.95-1.37,5.51-6.63,5.51-3.46,0-5.88-2.09-5.88-4.66,0-1.99,1.62-3.18,3.21-3.98-1.69-1.1-2.79-2.49-2.79-4.58,0-3.29,3.11-5.18,6.13-5.18,2.49,0,5.46,1.32,5.46,4.2,0,1.82-.97,2.59-2.42,3.43l-.93.53Z"/>
      <path d="M159.53,66.59l-1.59,1.99c-1.69,2.09-3.36,5.9-3.36,8.64,0,1.29.5,2.41.5,3.41,0,1.37-.82,2.22-2.19,2.22-1.65,0-2.46-1.02-2.46-2.62,0-2.59,2.22-6.13,3.09-7.44l2.81-4.29h-5.23c-2.62,0-1.22,1.8-2.94,1.8h-.48v-5.95c.58.37,1.35.55,2.02.55h9.84v1.69"/>
      <path d="M173.47,66.59l-1.59,1.99c-1.69,2.09-3.36,5.9-3.36,8.64,0,1.29.5,2.41.5,3.41,0,1.37-.82,2.22-2.19,2.22-1.65,0-2.47-1.02-2.47-2.62,0-2.59,2.22-6.13,3.09-7.44l2.82-4.29h-5.23c-2.62,0-1.22,1.8-2.94,1.8h-.48v-5.95c.58.37,1.35.55,2.02.55h9.84v1.69"/>
      <path d="M136.72,214.13l-3.36-1.72c.1-.3.16-.61.16-.94v-.23h0c0-.55-.15-1.07-.43-1.5,1.21-.45,2.24-1.07,3.08-1.83,1.93-1.73,2.81-4.14,2.8-6.68,0-2.17-.49-3.59-1.06-4.48-.57-.89-1.21-1.22-1.35-1.29-.02,0-.04-.02-.07-.03-.1-.3-.23-.65-.42-1.02-.43-.86-1.18-1.86-2.38-2.55-.21-.54-.65-1.56-1.32-2.61-.49-.76-1.09-1.54-1.87-2.16-.77-.62-1.76-1.1-2.9-1.09-1.14,0-2.13.47-2.9,1.09-1.17.94-1.96,2.22-2.51,3.26-.32.62-.55,1.16-.68,1.51-1.2.69-1.94,1.69-2.38,2.55-.19.37-.32.72-.42,1.02-.02,0-.04.02-.07.03-.15.06-.78.39-1.35,1.29-.57.89-1.06,2.31-1.06,4.48,0,2.54.88,4.95,2.8,6.68.85.76,1.88,1.38,3.08,1.83-.27.44-.42.95-.42,1.5v.23c0,.33.06.65.16.94l-3.36,1.72c-.35.18-.56.53-.56.92v1.84c0,.27.11.54.3.73.19.19.46.3.73.3h17.27c.27,0,.54-.11.73-.3.19-.19.3-.46.3-.73v-1.84c0-.39-.22-.74-.56-.92Z"/>
      <path class="cls-3" d="M134.5,195.95c-.24.11-.47.24-.7.38-.85.52-1.55,1.26-2.09,2.22,0-.02-.02-.03-.02-.05-.34-.66-.77-1.38-1.33-2.05.35-1.06.93-1.8,1.46-2.31.26-.25.51-.44.7-.57.87.45,1.39,1.13,1.73,1.79.11.21.19.41.25.59Z"/>
      <path class="cls-3" d="M124.74,190.14c.4-.59.87-1.13,1.37-1.5.5-.37.99-.56,1.51-.57.56,0,1.08.22,1.61.64.79.62,1.5,1.69,1.96,2.6.09.17.17.34.24.49-.28.19-.65.46-1.05.84-.57.54-1.2,1.31-1.67,2.33-.21-.13-.43-.26-.66-.37-.28-.13-.6-.13-.88,0-.23.11-.45.24-.66.37-.47-1.01-1.1-1.78-1.67-2.33-.39-.37-.76-.65-1.05-.84.23-.5.55-1.1.94-1.67Z"/>
      <path class="cls-3" d="M122.72,193.57c.22.15.51.37.81.68.5.5,1.02,1.21,1.34,2.19-.56.67-.99,1.39-1.33,2.05,0,.02-.02.03-.02.05-.15-.26-.3-.51-.47-.74-.45-.62-1-1.11-1.62-1.49-.22-.14-.46-.26-.7-.38.07-.2.17-.43.29-.66.34-.63.85-1.28,1.69-1.71Z"/>
      <path class="cls-3" d="M118.32,201.23c0-1.87.41-2.86.73-3.37.08-.12.15-.22.22-.29.42.16.78.33,1.08.51.62.39,1.05.84,1.48,1.68.42.83.8,2.04,1.15,3.79.11.56.66.92,1.22.81.56-.11.92-.66.81-1.22-.13-.64-.26-1.22-.41-1.76.13-.41.43-1.27.91-2.16.51-.97,1.25-1.94,2.11-2.5.93.61,1.71,1.69,2.23,2.73.3.59.52,1.15.66,1.56.05.15.1.28.13.39-.14.54-.28,1.12-.41,1.76-.11.56.25,1.1.81,1.22.56.11,1.1-.25,1.22-.81h0c.47-2.33.98-3.7,1.59-4.51.3-.41.63-.7,1.05-.96.3-.19.66-.35,1.08-.51.34.38.94,1.34.95,3.66,0,2.08-.68,3.84-2.12,5.14-1.44,1.3-3.74,2.18-7.18,2.18-3.43,0-5.74-.89-7.18-2.18-1.44-1.3-2.11-3.06-2.12-5.14Z"/>
      <path class="cls-3" d="M127.63,210.62h3.41c.07,0,.15.03.25.13.09.1.17.28.17.49h0v.23c0,.21-.08.39-.17.49-.1.1-.17.13-.25.13h-6.84c-.07,0-.15-.03-.25-.13-.09-.1-.17-.28-.17-.49v-.23c0-.21.08-.39.17-.49.1-.1.17-.13.25-.13h3.43Z"/>
      <polygon class="cls-3" points="135.22 215.85 120.02 215.85 120.02 215.68 123 214.15 124.2 214.15 124.2 214.15 131.04 214.15 131.04 214.15 131.05 214.15 132.24 214.15 135.22 215.68 135.22 215.85"/>
      <path d="M158.16,214.13l3.36-1.72c-.1-.3-.16-.61-.16-.94v-.23h0c0-.55.15-1.07.43-1.5-1.21-.45-2.24-1.07-3.08-1.83-1.93-1.73-2.81-4.14-2.8-6.68,0-2.17.49-3.59,1.06-4.48.57-.89,1.2-1.22,1.35-1.29.02,0,.04-.02.07-.03.1-.3.23-.65.42-1.02.43-.86,1.18-1.86,2.38-2.55.21-.54.65-1.56,1.32-2.61.49-.76,1.09-1.54,1.87-2.16.77-.62,1.76-1.1,2.9-1.09,1.14,0,2.13.47,2.9,1.09,1.17.94,1.96,2.22,2.51,3.26.32.62.55,1.16.68,1.51,1.2.69,1.94,1.69,2.38,2.55.19.37.32.72.42,1.02.02,0,.04.02.07.03.15.06.78.39,1.35,1.29.57.89,1.06,2.31,1.06,4.48,0,2.54-.88,4.95-2.8,6.68-.85.76-1.88,1.38-3.08,1.83.27.44.42.95.42,1.5v.23c0,.33-.06.65-.16.94l3.36,1.72c.35.18.56.53.56.92v1.84c0,.27-.11.54-.3.73s-.46.3-.73.3h-17.27c-.27,0-.54-.11-.73-.3-.19-.19-.3-.46-.3-.73v-1.84c0-.39.22-.74.56-.92Z"/>
      <path class="cls-3" d="M160.39,195.95c.24.11.47.24.7.38.85.52,1.55,1.26,2.09,2.22,0-.02.02-.03.02-.05.34-.66.78-1.38,1.33-2.05-.35-1.06-.93-1.8-1.46-2.31-.26-.25-.51-.44-.7-.57-.87.45-1.39,1.13-1.73,1.79-.11.21-.19.41-.25.59Z"/>
      <path class="cls-3" d="M170.14,190.14c-.4-.59-.87-1.13-1.37-1.5-.5-.37-.99-.56-1.51-.57-.56,0-1.08.22-1.61.64-.79.62-1.5,1.69-1.96,2.6-.09.17-.17.34-.24.49.28.19.65.46,1.05.84.57.54,1.2,1.31,1.67,2.33.21-.13.43-.26.66-.37.28-.13.6-.13.88,0,.23.11.45.24.66.37.47-1.01,1.1-1.78,1.67-2.33.39-.37.76-.65,1.05-.84-.23-.5-.55-1.1-.94-1.67Z"/>
      <path class="cls-3" d="M172.16,193.57c-.22.15-.51.37-.81.68-.5.5-1.02,1.21-1.34,2.19.56.67.99,1.39,1.33,2.05,0,.02.02.03.02.05.15-.26.3-.51.47-.74.45-.62,1-1.11,1.62-1.49.22-.14.46-.26.7-.38-.07-.2-.17-.43-.29-.66-.34-.63-.85-1.28-1.69-1.71Z"/>
      <path class="cls-3" d="M176.56,201.23c0-1.87-.41-2.86-.73-3.37-.08-.12-.15-.22-.22-.29-.42.16-.78.33-1.08.51-.62.39-1.05.84-1.48,1.68-.42.83-.8,2.04-1.15,3.79-.11.56-.66.92-1.22.81-.56-.11-.92-.66-.81-1.22.13-.64.26-1.22.41-1.76-.13-.41-.43-1.27-.91-2.16-.51-.97-1.25-1.94-2.11-2.5-.93.61-1.71,1.69-2.23,2.73-.3.59-.52,1.15-.66,1.56-.05.15-.1.28-.13.39.14.54.28,1.12.41,1.76.11.56-.25,1.1-.81,1.22-.56.11-1.1-.25-1.22-.81h0c-.47-2.33-.98-3.7-1.59-4.51-.3-.41-.63-.7-1.05-.96-.3-.19-.66-.35-1.08-.51-.34.38-.94,1.34-.95,3.66,0,2.08.68,3.84,2.12,5.14,1.44,1.3,3.74,2.18,7.18,2.18,3.43,0,5.74-.89,7.18-2.18,1.44-1.3,2.11-3.06,2.12-5.14Z"/>
      <path class="cls-3" d="M167.25,210.62h-3.41c-.07,0-.15.03-.25.13-.09.1-.17.28-.17.49h0v.23c0,.21.08.39.17.49.1.1.17.13.25.13h6.84c.07,0,.15-.03.25-.13.09-.1.17-.28.17-.49v-.23c0-.21-.08-.39-.17-.49-.1-.1-.17-.13-.25-.13h-3.43Z"/>
      <polygon class="cls-3" points="159.66 215.85 174.86 215.85 174.86 215.68 171.88 214.15 170.69 214.15 170.68 214.15 163.84 214.15 163.84 214.15 163.84 214.15 162.65 214.15 159.66 215.68 159.66 215.85"/>
    </g>
  </g>
</svg>