<?xml version="1.0" encoding="UTF-8"?>
<svg version="1.1" xmlns="http://www.w3.org/2000/svg" width="1024" height="1024">
<path d="M0 0 C3.13002981 0.00461096 6.25966909 -0.00223068 9.38964844 -0.02050781 C36.65442168 -0.17795511 63.43427748 1.34161329 90.34399414 6.06567383 C91.07955536 6.19161926 91.81511658 6.3175647 92.57296753 6.44732666 C181.48655317 21.71274976 265.3380152 60.01097681 334.28149414 118.31567383 C334.79663574 118.74734863 335.31177734 119.17902344 335.8425293 119.6237793 C348.88839251 130.56559354 361.21894462 142.1771638 373.28149414 154.19067383 C374.07064209 154.97514893 374.85979004 155.75962402 375.67285156 156.56787109 C380.41493475 161.32306371 384.91228113 166.21782259 389.28149414 171.31567383 C390.32690299 172.50706609 391.37374965 173.69719846 392.42211914 174.88598633 C399.66701181 183.14942229 406.63298407 191.56530533 413.28149414 200.31567383 C413.8082373 201.00580566 414.33498047 201.6959375 414.87768555 202.40698242 C475.77811094 282.53537988 510.47361047 378.42919795 517.70336914 528.15161133 C516.92101918 532.98286381 515.6890667 537.63278818 514.28149414 542.31567383 C513.85416992 543.78665527 513.85416992 543.78665527 513.41821289 545.28735352 C498.80472795 594.67552021 472.8783009 637.56652032 436.78149414 674.00317383 C435.91548584 674.88231445 435.04947754 675.76145508 434.15722656 676.66723633 C428.92125252 681.90961554 423.49693448 686.71226818 417.71459961 691.34375 C414.86530475 693.65297683 412.238728 696.08874331 409.59399414 698.62817383 C397.67813079 709.754815 378.83580731 727.17369933 361.62133789 726.68676758 C356.71123342 725.90803649 353.1410371 723.3728249 349.84790039 719.72973633 C333.93512471 697.02552679 334.7031324 658.89378843 331.57409668 631.99554443 C328.09739462 602.14426866 324.19676995 572.26339202 317.46899414 542.94067383 C317.3060788 542.21859741 317.14316345 541.496521 316.97531128 540.75256348 C303.2222861 480.03972693 277.05345312 419.15761934 235.28149414 372.31567383 C234.82871094 371.80117676 234.37592773 371.28667969 233.90942383 370.7565918 C202.29959915 334.94771712 163.16204654 309.75149476 120.28149414 289.31567383 C119.54850098 288.9644043 118.81550781 288.61313477 118.06030273 288.2512207 C70.05743821 265.4320011 16.98971121 254.03907006 -36.09350586 254.12817383 C-36.88007568 254.12944275 -37.66664551 254.13071167 -38.47705078 254.13201904 C-135.8570391 254.42929875 -227.66830192 293.89243676 -304.33178711 368.74121094 C-309.07143072 373.53817259 -313.51743473 378.38748074 -317.66772461 383.70629883 C-319.5726425 386.13008007 -321.56009512 388.45986252 -323.58544922 390.78320312 C-378.84555512 454.51034732 -407.51967155 541.86991164 -409.71850586 625.31567383 C-409.75137695 626.34289551 -409.75137695 626.34289551 -409.78491211 627.39086914 C-412.5187661 721.9366529 -377.65870491 816.25358482 -306.71850586 897.31567383 C-305.81042086 898.32821697 -304.90289413 899.34126101 -303.99584961 900.35473633 C-299.52930738 905.32193242 -295.0527677 910.12824318 -289.92163086 914.42504883 C-287.63154028 916.39030386 -285.43744211 918.44360286 -283.24291992 920.5144043 C-276.07250164 927.25816359 -268.56667399 933.38225798 -260.71850586 939.31567383 C-259.63907715 940.13986816 -259.63907715 940.13986816 -258.5378418 940.98071289 C-247.34045481 949.51092135 -235.90126536 957.26576579 -223.71850586 964.31567383 C-223.01467773 964.72736816 -222.31084961 965.1390625 -221.58569336 965.56323242 C-198.1334724 979.22025685 -173.01980513 991.30701815 -146.71850586 998.31567383 C-146.71850586 998.97567383 -146.71850586 999.63567383 -146.71850586 1000.31567383 C-153.15830912 999.713907 -158.85136551 997.71562922 -164.90600586 995.50317383 C-165.99461914 995.10718994 -167.08323242 994.71120605 -168.20483398 994.30322266 C-205.33999085 980.57304265 -241.67967017 963.19569746 -274.71850586 941.31567383 C-275.86730225 940.55867187 -275.86730225 940.55867187 -277.03930664 939.78637695 C-296.78127843 926.71571644 -315.87211021 912.39455659 -333.37866211 896.43676758 C-335.50655401 894.50781048 -337.66571445 892.6253103 -339.84350586 890.75317383 C-343.30453164 887.74388836 -346.51662459 884.53855885 -349.73022461 881.26879883 C-351.59836833 879.43368712 -353.52584073 877.74821565 -355.53100586 876.06567383 C-360.50853441 871.77570272 -364.80471673 866.87070402 -369.19165039 861.99536133 C-371.32275606 859.65094063 -373.495896 857.34711195 -375.66674805 855.03955078 C-381.63832495 848.67757813 -387.31788441 842.17498403 -392.71850586 835.31567383 C-393.22994141 834.67146484 -393.74137695 834.02725586 -394.26831055 833.36352539 C-417.11948433 804.55232244 -437.96102929 773.62595445 -453.74975586 740.33862305 C-454.82088447 738.10188623 -455.92500155 735.88301927 -457.03100586 733.66333008 C-480.32601292 686.46550001 -494.97805988 634.77080529 -502.03100586 582.69067383 C-502.2517981 581.06210449 -502.2517981 581.06210449 -502.47705078 579.40063477 C-502.942035 575.71014561 -503.34863128 572.01665969 -503.71850586 568.31567383 C-503.80464142 567.45484192 -503.89077698 566.59401001 -503.97952271 565.70709229 C-505.61919488 548.77365181 -506.08218373 531.94673111 -506.03100586 514.94067383 C-506.02918304 513.67530792 -506.02736023 512.40994202 -506.02548218 511.10623169 C-505.97616343 490.69100002 -505.30267308 470.57050259 -502.71850586 450.31567383 C-502.59122101 449.30289368 -502.59122101 449.30289368 -502.46136475 448.26965332 C-495.8983824 396.34178883 -481.73851657 345.83768465 -459.71850586 298.31567383 C-459.00307617 296.75937256 -459.00307617 296.75937256 -458.27319336 295.17163086 C-438.91638887 253.24267033 -413.50892251 214.55860809 -383.71850586 179.31567383 C-383.16855957 178.66131348 -382.61861328 178.00695312 -382.05200195 177.33276367 C-376.99347704 171.31905868 -371.95339545 165.34141887 -366.28881836 159.88208008 C-364.52321147 158.12086524 -362.90625989 156.26944477 -361.28100586 154.37817383 C-355.84324312 148.09076066 -349.94254202 142.43328142 -343.64038086 137.02270508 C-341.80854566 135.39564821 -340.10722475 133.70265053 -338.40600586 131.94067383 C-334.77362471 128.25102541 -330.81046536 125.05550086 -326.77709961 121.81567383 C-324.10672315 119.63299064 -321.50978526 117.39572049 -318.92114258 115.11865234 C-250.14472142 54.91216379 -159.3761547 17.27393549 -69.34350586 4.44067383 C-68.66130981 4.34298706 -67.97911377 4.24530029 -67.27624512 4.14465332 C-62.43143293 3.46228955 -57.57890327 2.87478142 -52.71850586 2.31567383 C-51.96121185 2.22351593 -51.20391785 2.13135803 -50.42367554 2.03640747 C-33.64443592 0.03592531 -16.87108291 -0.02686491 0 0 Z "  transform="translate(505.718505859375,-0.315673828125)"/>
<path d="M0 0 C2.03958525 1.86041709 4.05647243 3.74372028 6.06420898 5.63842773 C7.46061802 6.95521491 8.86739039 8.26098627 10.2746582 9.56616211 C22.2865006 21.07242624 31.73325716 34.64832288 40.23657227 48.87670898 C41.6094054 51.15334988 43.01582121 53.4068602 44.42700195 55.65991211 C55.43308232 73.38096411 64.8776799 91.87510396 70.52856445 112.01928711 C70.71999023 112.69024414 70.91141602 113.36120117 71.10864258 114.05249023 C76.52550472 133.51167095 78.03366143 153.90147914 78.52856445 174.01928711 C78.55047852 174.72021484 78.57239258 175.42114258 78.5949707 176.14331055 C80.01908955 225.34661686 76.06594283 293.85530349 41.3371582 331.62866211 C37.64152825 334.77431653 33.98541715 336.72813411 29.12231445 337.30444336 C22.8912203 336.64180835 19.59846018 334.73076263 15.52856445 330.01928711 C8.83450117 320.74844186 3.16921376 311.0565492 -2.05987549 300.90106201 C-3.97981345 297.17708393 -5.93372453 293.47089618 -7.8815918 289.76147461 C-8.27115051 289.01789703 -8.66070923 288.27431946 -9.06207275 287.50820923 C-23.57633773 259.81600865 -39.07351254 232.28568386 -60.46362305 209.23803711 C-61.86796735 207.68615469 -63.21335966 206.07980083 -64.51049805 204.43725586 C-67.44582682 200.81779668 -70.92432106 198.02204244 -74.47143555 195.01928711 C-75.31448242 194.26518555 -76.1575293 193.51108398 -77.02612305 192.73413086 C-108.67992656 165.06993416 -147.85564205 155.80190705 -189.11206055 158.26538086 C-223.89691457 160.98692466 -256.57075127 174.78328229 -282.47143555 198.01928711 C-283.01880371 198.51009766 -283.56617188 199.0009082 -284.13012695 199.5065918 C-297.34946326 211.57766427 -307.35366147 226.14495138 -315.47143555 242.01928711 C-315.99713135 243.0419165 -315.99713135 243.0419165 -316.53344727 244.08520508 C-325.59968096 261.94597804 -330.80962899 280.36771383 -334.47143555 300.01928711 C-334.672771 301.0740625 -334.672771 301.0740625 -334.87817383 302.15014648 C-342.7282524 345.47463074 -333.32275289 392.83144741 -314.47143555 432.01928711 C-314.0950293 432.80480957 -313.71862305 433.59033203 -313.33081055 434.3996582 C-290.05828995 482.31195998 -245.07624893 511.23716632 -195.84643555 528.36303711 C-158.24151189 541.0354316 -120.00829961 546.82809684 -80.47143555 548.01928711 C-81.47143555 551.01928711 -81.47143555 551.01928711 -83.80273438 552.24267578 C-85.34997192 552.83399292 -85.34997192 552.83399292 -86.9284668 553.43725586 C-88.08950928 553.88311035 -89.25055176 554.32896484 -90.44677734 554.78833008 C-91.72530177 555.26257581 -93.00437034 555.73535673 -94.28393555 556.20678711 C-94.93157867 556.44850647 -95.5792218 556.69022583 -96.24649048 556.93927002 C-176.19070542 586.69627655 -263.85305001 585.10550581 -341.9597168 550.16772461 C-372.90357451 535.89014508 -400.43086928 517.05490173 -425.47143555 494.01928711 C-427.15835644 492.51863587 -428.84586516 491.01864518 -430.53393555 489.51928711 C-438.0108908 482.78065189 -444.94982071 475.68085901 -451.47143555 468.01928711 C-452.2706543 467.10920898 -453.06987305 466.19913086 -453.89331055 465.26147461 C-467.16165206 450.04593549 -478.20985033 433.37223825 -488.47143555 416.01928711 C-488.94822754 415.2182959 -489.42501953 414.41730469 -489.91625977 413.59204102 C-533.47678537 339.72058615 -543.42625752 247.30973697 -522.64233398 164.72485352 C-513.02604867 128.39104098 -497.87650476 92.99470242 -476.47143555 62.01928711 C-476.03557129 61.38667969 -475.59970703 60.75407227 -475.15063477 60.10229492 C-464.72636961 45.05929041 -453.24278726 30.35858631 -440.06518555 17.61303711 C-438.31947535 15.93233132 -438.31947535 15.93233132 -436.47143555 13.45678711 C-434.18176588 10.66625221 -431.65281763 8.48351947 -428.90893555 6.14819336 C-426.59160225 4.1242404 -424.36024146 2.02657676 -422.13183594 -0.09423828 C-409.71496655 -11.83951535 -395.89093198 -21.84291207 -381.47143555 -30.98071289 C-380.61146973 -31.52840332 -380.61146973 -31.52840332 -379.73413086 -32.0871582 C-345.33587696 -53.8174999 -307.42371173 -68.49698851 -267.47143555 -75.98071289 C-266.58875 -76.14651855 -265.70606445 -76.31232422 -264.79663086 -76.4831543 C-170.52818879 -93.59113082 -70.91983368 -63.87232488 0 0 Z "  transform="translate(679.471435546875,389.980712890625)"/>
<path d="M0 0 C1.98 0 3.96 0 6 0 C6 0.33 6 0.66 6 1 C4.02 1 2.04 1 0 1 C0 0.67 0 0.34 0 0 Z "  transform="translate(509,1023)"/>
</svg>
